# xmcd
#
# Track frame offsets: 
#        150
#        12370
#        20680
#        32445
#        54155
#
# Disc length: 1267 seconds
#
# Revision: 1
# Processed by: cddbd v1.5.2PL0 Copyright (c) Steve Scherf et al.
# Submitted via: ExactAudioCopy v0.99pb4
#
DISCID=2f04f105
DTITLE=King Adora - Friday Night Explodes
DYEAR=2001
DGENRE=Rock
TTITLE0=Friday Night Explodes
TTITLE1=White Noise Babies
TTITLE2=Bionic (Six Million Dollar Mix)
TTITLE3=Saffron
TTITLE4=Video
EXTD=
EXTT0=
EXTT1=
EXTT2=
EXTT3=
EXTT4=
PLAYORDER=
